<svg width="13" height="12" viewBox="0 0 13 12" fill="none" xmlns="http://www.w3.org/2000/svg">
<path d="M6.50005 0C2.91064 0 0 2.75424 0 6.1519C0 8.86998 1.86246 11.176 4.44513 11.9894C4.76999 12.0464 4.88925 11.856 4.88925 11.6935C4.88925 11.5468 4.88322 11.0622 4.88042 10.5481C3.0721 10.9203 2.69052 9.82228 2.69052 9.82228C2.39484 9.11121 1.96881 8.92213 1.96881 8.92213C1.37906 8.54031 2.01326 8.54816 2.01326 8.54816C2.66598 8.59156 3.00967 9.18211 3.00967 9.18211C3.58941 10.1226 4.53028 9.85071 4.9012 9.69352C4.95954 9.29591 5.12799 9.02452 5.31388 8.87089C3.87013 8.71533 2.35243 8.18783 2.35243 5.8306C2.35243 5.15895 2.60635 4.61016 3.02216 4.17934C2.95467 4.02439 2.73218 3.39869 3.08513 2.55131C3.08513 2.55131 3.63096 2.38597 4.8731 3.1819C5.3916 3.04559 5.94765 2.97724 6.50005 2.97489C7.05245 2.97724 7.60894 3.04559 8.1284 3.1819C9.36904 2.38597 9.91412 2.55131 9.91412 2.55131C10.2679 3.39869 10.0453 4.02439 9.97784 4.17934C10.3946 4.61016 10.6468 5.15895 10.6468 5.8306C10.6468 8.19344 9.12621 8.7137 7.6788 8.866C7.91194 9.05691 8.11969 9.4313 8.11969 10.0052C8.11969 10.8284 8.11215 11.4909 8.11215 11.6935C8.11215 11.8572 8.22915 12.049 8.55863 11.9886C11.1399 11.1742 13 8.86906 13 6.1519C13 2.75424 10.0898 0 6.50005 0ZM2.43448 8.76352C2.42017 8.79408 2.36936 8.80325 2.32308 8.78226C2.27593 8.76219 2.24945 8.72053 2.26474 8.68986C2.27873 8.65838 2.32964 8.64962 2.37668 8.67071C2.42393 8.69078 2.45084 8.73285 2.43448 8.76352ZM2.75421 9.03353C2.72321 9.06073 2.66261 9.04809 2.62149 9.0051C2.57898 8.96222 2.57101 8.90486 2.60244 8.87725C2.63441 8.85005 2.69318 8.86279 2.73581 8.90568C2.77832 8.94907 2.78661 9.00602 2.75421 9.03353ZM2.97356 9.379C2.93373 9.40518 2.86861 9.38063 2.82836 9.32592C2.78853 9.27121 2.78853 9.20561 2.82922 9.17933C2.86958 9.15304 2.93373 9.17668 2.97453 9.23098C3.01425 9.2866 3.01425 9.3522 2.97356 9.379ZM3.34452 9.7791C3.30889 9.81628 3.23301 9.8063 3.17747 9.75557C3.12063 9.70595 3.10481 9.63556 3.14055 9.59838C3.17661 9.56109 3.25292 9.57158 3.30889 9.62191C3.3653 9.67142 3.38252 9.74232 3.34452 9.7791ZM3.82396 9.91417C3.80824 9.96235 3.73515 9.98426 3.66153 9.96378C3.58801 9.94269 3.5399 9.88626 3.55475 9.83756C3.57004 9.78907 3.64345 9.76625 3.71761 9.78815C3.79102 9.80914 3.83924 9.86517 3.82396 9.91417ZM4.36957 9.97146C4.3714 10.0222 4.30897 10.0643 4.23169 10.0652C4.15397 10.0668 4.09111 10.0258 4.09025 9.97584C4.09025 9.9246 4.15128 9.88293 4.229 9.88171C4.30628 9.88029 4.36957 9.92104 4.36957 9.97146ZM4.90558 9.95202C4.91483 10.0015 4.86112 10.0524 4.78438 10.0659C4.70892 10.0789 4.63907 10.0484 4.62949 9.99929C4.62012 9.94855 4.6748 9.89772 4.75015 9.88458C4.827 9.87194 4.89578 9.90169 4.90558 9.95202Z" fill="white"/>
</svg>
