<svg width="30" height="30" viewBox="0 0 30 30" fill="none" xmlns="http://www.w3.org/2000/svg">
<path d="M6.21094 7.96875C5.22562 7.96875 4.45312 8.74125 4.45312 9.72656C4.45312 10.7119 5.22562 11.4844 6.21094 11.4844C7.19625 11.4844 7.96875 10.7119 7.96875 9.72656C7.96875 8.74125 7.19625 7.96875 6.21094 7.96875ZM11.4844 9.72656C11.4844 8.74125 10.7119 7.96875 9.72656 7.96875C8.74125 7.96875 7.96875 8.74125 7.96875 9.72656C7.96875 10.7119 8.74125 11.4844 9.72656 11.4844C10.7119 11.4844 11.4844 10.7119 11.4844 9.72656ZM13.2422 11.4844C14.2275 11.4844 15 10.7119 15 9.72656C15 8.74125 14.2275 7.96875 13.2422 7.96875C12.2569 7.96875 11.4844 8.74125 11.4844 9.72656C11.4844 10.7119 12.2569 11.4844 13.2422 11.4844ZM29.5142 28.3349L29.5125 28.334C28.4122 27.6577 28.0465 26.1734 28.7057 25.0713C29.564 23.5779 30 21.9635 30 20.2734C30 14.9425 25.6035 10.6055 20.2734 10.6055C19.4924 10.6055 18.7525 10.6913 18.0745 10.8595C17.7552 10.9393 17.5063 11.1926 17.4308 11.5136C16.7544 14.4301 14.4318 16.7527 11.5136 17.4316C11.1926 17.5062 10.9403 17.7543 10.8596 18.0745C10.6913 18.7508 10.6055 19.4907 10.6055 20.2734C10.6055 25.6044 14.9433 30 20.2734 30H29.1211C29.5279 30 29.8833 29.7193 29.976 29.3228C30.0704 28.9263 29.8781 28.5169 29.5142 28.3349Z" fill="url(#paint0_linear)"/>
<path d="M9.72656 0C4.40033 0 0 4.40033 0 9.72656C0 11.414 0.439453 13.0663 1.28314 14.4902C1.93354 15.6328 1.56445 17.0918 0.439453 17.7598C0.0878906 17.9531 -0.0702539 18.3574 0.0352148 18.7441C0.140684 19.1308 0.474668 19.3945 0.878906 19.3945H9.72656C10.5 19.3945 11.2559 19.3066 11.9062 19.1484C15.4747 18.3223 18.3223 15.4746 19.1484 11.9238C19.3067 11.2559 19.3945 10.5176 19.3945 9.72656C19.3945 4.40033 15.0528 0 9.72656 0ZM6.21094 10.6055C5.71869 10.6055 5.33203 10.2187 5.33203 9.72656C5.33203 9.23432 5.71869 8.84766 6.21094 8.84766C6.70318 8.84766 7.08984 9.23432 7.08984 9.72656C7.08984 10.2187 6.70318 10.6055 6.21094 10.6055ZM9.72656 10.6055C9.23432 10.6055 8.84766 10.2187 8.84766 9.72656C8.84766 9.23432 9.23432 8.84766 9.72656 8.84766C10.2188 8.84766 10.6055 9.23432 10.6055 9.72656C10.6055 10.2187 10.2188 10.6055 9.72656 10.6055ZM13.2422 10.6055C12.7499 10.6055 12.3633 10.2187 12.3633 9.72656C12.3633 9.23432 12.7499 8.84766 13.2422 8.84766C13.7344 8.84766 14.1211 9.23432 14.1211 9.72656C14.1211 10.2187 13.7344 10.6055 13.2422 10.6055ZM16.7578 19.3945C16.2724 19.3945 15.8789 19.788 15.8789 20.2734C15.8789 20.7588 16.2724 21.1523 16.7578 21.1523C17.2432 21.1523 17.6367 20.7588 17.6367 20.2734C17.6367 19.788 17.2432 19.3945 16.7578 19.3945ZM20.2734 19.3945C19.788 19.3945 19.3945 19.788 19.3945 20.2734C19.3945 20.7588 19.788 21.1523 20.2734 21.1523C20.7588 21.1523 21.1523 20.7588 21.1523 20.2734C21.1523 19.788 20.7588 19.3945 20.2734 19.3945ZM23.7891 19.3945C23.3037 19.3945 22.9102 19.788 22.9102 20.2734C22.9102 20.7588 23.3037 21.1523 23.7891 21.1523C24.2745 21.1523 24.668 20.7588 24.668 20.2734C24.668 19.788 24.2745 19.3945 23.7891 19.3945Z" fill="url(#paint1_linear)"/>
<defs>
<linearGradient id="paint0_linear" x1="17.2266" y1="30" x2="17.2266" y2="7.96875" gradientUnits="userSpaceOnUse">
<stop stop-color="#F9B932"/>
<stop offset="1" stop-color="#F9F132"/>
</linearGradient>
<linearGradient id="paint1_linear" x1="12.334" y1="21.1523" x2="12.334" y2="0" gradientUnits="userSpaceOnUse">
<stop stop-color="#F98632"/>
<stop offset="1" stop-color="#FFB09E"/>
</linearGradient>
</defs>
</svg>
