<svg width="241" height="62" viewBox="0 0 241 62" fill="none" xmlns="http://www.w3.org/2000/svg">
<path d="M20.9403 -0.0955051H234.152C235.051 -0.0974164 235.941 0.084694 236.772 0.440422C237.602 0.79615 238.357 1.3185 238.993 1.97757C239.629 2.63664 240.134 3.4195 240.478 4.28132C240.823 5.14314 241 6.067 241 7.00002L241 46.7841C241 47.7161 240.823 48.639 240.48 49.5C240.136 50.361 239.632 51.1434 238.998 51.8023C238.363 52.4612 237.609 52.9838 236.78 53.3402C235.951 53.6967 235.062 53.88 234.164 53.8796C233.267 53.8796 19.1543 53.6961 18.3252 53.3395C14.7812 58.468 1.60669 62.8657 0.106696 62.3657C-1.3933 61.8657 13.4068 52.3244 14.1067 46.7841L14.1067 7.00002C14.1067 5.11817 14.8267 3.31339 16.1082 1.98272C17.3898 0.652047 19.1279 -0.0955051 20.9403 -0.0955051Z" fill="#EFEFEF"/>
</svg>
