<svg width="241" height="64" viewBox="0 0 241 64" fill="none" xmlns="http://www.w3.org/2000/svg">
<path d="M220.06 0.904556H6.84756C5.94897 0.902645 5.0589 1.08476 4.2282 1.44048C3.39749 1.79621 2.64253 2.31856 2.00648 2.97763C1.37044 3.6367 0.865829 4.41956 0.52153 5.28138C0.177231 6.1432 0 7.06706 0 8.00008V47.4045C0 48.3365 0.176849 49.2594 0.520416 50.1204C0.863983 50.9815 1.36754 51.7638 2.00235 52.4227C2.63716 53.0816 3.39075 53.6042 4.22011 53.9607C5.04947 54.3171 5.93832 54.5004 6.83592 54.5001C7.73332 54.5001 221.846 54.3165 222.675 53.96C226.219 59.0884 239.393 63.4861 240.893 62.9861C242.393 62.4861 227.593 52.9448 226.893 47.4045V8.00008C226.893 6.11823 226.173 4.31345 224.892 2.98278C223.61 1.65211 221.872 0.904556 220.06 0.904556Z" fill="#FFECAA"/>
</svg>
