<svg width="241" height="63" viewBox="0 0 241 63" fill="none" xmlns="http://www.w3.org/2000/svg">
<path d="M20.9403 1.48896e-05H234.152C235.051 -0.00189639 235.941 0.180214 236.772 0.535942C237.602 0.89167 238.357 1.41402 238.993 2.07309C239.629 2.73216 240.134 3.51502 240.478 4.37684C240.823 5.23866 241 6.16252 241 7.09554L241 46.8796C241 47.8116 240.823 48.7345 240.48 49.5955C240.136 50.4566 239.632 51.2389 238.998 51.8978C238.363 52.5567 237.609 53.0793 236.78 53.4358C235.951 53.7922 235.062 53.9755 234.164 53.9752C233.267 53.9752 19.1543 53.7916 18.3252 53.435C14.7812 58.5635 1.60669 62.9612 0.106696 62.4612C-1.3933 61.9612 13.4068 52.4199 14.1067 46.8796L14.1067 7.09554C14.1067 5.21369 14.8267 3.40891 16.1082 2.07824C17.3898 0.747567 19.1279 1.48896e-05 20.9403 1.48896e-05Z" fill="#FFECAA"/>
</svg>
