<svg width="241" height="62" viewBox="0 0 241 62" fill="none" xmlns="http://www.w3.org/2000/svg">
<path d="M220.06 -0.0955051H6.84756C5.94897 -0.0974164 5.0589 0.084694 4.2282 0.440422C3.39749 0.79615 2.64253 1.3185 2.00648 1.97757C1.37044 2.63664 0.865829 3.4195 0.52153 4.28132C0.177231 5.14314 0 6.067 0 7.00002V46.4045C0 47.3365 0.176849 48.2594 0.520416 49.1204C0.863983 49.9814 1.36754 50.7637 2.00235 51.4226C2.63716 52.0816 3.39075 52.6042 4.22011 52.9606C5.04947 53.317 5.93832 53.5003 6.83592 53.5C7.73332 53.5 221.846 53.3165 222.675 52.9599C226.219 58.0883 239.393 62.4861 240.893 61.9861C242.393 61.4861 227.593 51.9448 226.893 46.4045V7.00002C226.893 5.11817 226.173 3.31339 224.892 1.98272C223.61 0.652047 221.872 -0.0955051 220.06 -0.0955051Z" fill="#96C2DA"/>
</svg>
