<svg width="19" height="12" viewBox="0 0 19 12" fill="none" xmlns="http://www.w3.org/2000/svg">
<path fill-rule="evenodd" clip-rule="evenodd" d="M11.1196 10.8482C11.1691 10.0051 11.5124 8.6929 12.3702 9.40859C12.8885 9.84211 13.2998 10.4701 13.7656 11.0215C14.2202 11.5584 14.7626 12.0275 15.7732 11.9987C16.3725 11.9816 18.0938 12.0446 18.5422 11.8638C19.8974 11.3194 17.4964 8.83123 16.91 8.27444C16.6632 8.04021 16.3868 7.70671 16.1752 7.45879C15.9136 7.15265 15.7881 6.84239 15.9959 6.36229L16.9045 4.94731C17.1735 4.622 18.1687 3.04614 18.4093 2.61467C18.7556 1.99281 19.4663 0.770322 18.5503 0.574449C18.0351 0.464183 16.3626 0.566918 15.7262 0.571713C14.4725 0.580618 14.7273 0.427213 14.1088 2.00858C13.6969 3.06054 12.4253 5.53972 11.7511 5.82258C10.5011 6.34718 11.479 1.3271 10.952 0.458687C10.6322 -0.067976 9.15032 -0.00224856 8.45698 0.00802486C7.65169 0.0189824 6.53837 0.0662432 6.30334 0.801796C6.37509 0.869593 6.29655 0.823736 6.43571 0.886745C6.53591 0.931943 6.69238 0.942217 6.86247 1.04289C7.01338 1.13124 7.1507 1.28668 7.22925 1.42639C7.60901 2.09893 7.56324 4.93228 7.24904 5.6192C6.66085 6.90265 4.94265 3.29681 4.64824 2.65441C4.22766 1.73737 4.06251 0.845633 3.58626 0.617571C3.24114 0.453202 1.28484 0.54499 0.758493 0.554579C0.276681 0.5628 -0.138962 0.647033 0.0441147 1.27917C0.136271 1.59763 0.355219 2.04624 0.487578 2.36745C1.30338 4.35015 2.57872 6.78416 3.70254 8.43333C4.97109 10.2941 6.84638 11.9426 9.21709 11.9638C10.9198 11.9789 11.0485 12.0625 11.1196 10.8482Z" fill="white"/>
</svg>
