<svg width="44" height="44" viewBox="0 0 44 44" fill="none" xmlns="http://www.w3.org/2000/svg">
<path d="M11.4125 8.82015C11.0667 8.48619 10.6036 8.3014 10.1229 8.30558C9.64223 8.30976 9.18241 8.50257 8.8425 8.84248C8.50258 9.1824 8.30977 9.64222 8.3056 10.1229C8.30142 10.6036 8.48621 11.0667 8.82016 11.4125L19.4077 22L8.81833 32.5875C8.64323 32.7566 8.50356 32.9589 8.40748 33.1826C8.3114 33.4062 8.26082 33.6468 8.25871 33.8902C8.25659 34.1337 8.30298 34.3751 8.39516 34.6004C8.48734 34.8257 8.62347 35.0304 8.79561 35.2025C8.96774 35.3747 9.17244 35.5108 9.39775 35.603C9.62306 35.6952 9.86447 35.7416 10.1079 35.7394C10.3513 35.7373 10.5919 35.6868 10.8156 35.5907C11.0392 35.4946 11.2415 35.3549 11.4107 35.1798L22 24.5923L32.5875 35.1798C32.9333 35.5138 33.3964 35.6986 33.8771 35.6944C34.3578 35.6902 34.8176 35.4974 35.1575 35.1575C35.4974 34.8176 35.6902 34.3577 35.6944 33.8771C35.6986 33.3964 35.5138 32.9333 35.1798 32.5875L24.5923 22L35.1798 11.4125C35.5138 11.0667 35.6986 10.6036 35.6944 10.1229C35.6902 9.64222 35.4974 9.1824 35.1575 8.84248C34.8176 8.50257 34.3578 8.30976 33.8771 8.30558C33.3964 8.3014 32.9333 8.48619 32.5875 8.82015L22 19.4077L11.4125 8.81832V8.82015Z" fill="#0C4459"/>
</svg>
