<svg width="12" height="12" viewBox="0 0 12 12" fill="none" xmlns="http://www.w3.org/2000/svg">
<path d="M10 1.5H2C1.17157 1.5 0.5 2.17157 0.5 3V10C0.5 10.8284 1.17157 11.5 2 11.5H10C10.8284 11.5 11.5 10.8284 11.5 10V3C11.5 2.17157 10.8284 1.5 10 1.5Z" stroke="#333333" stroke-linecap="round" stroke-linejoin="round"/>
<path d="M0.5 4.5H11.5" stroke="#333333" stroke-linecap="round" stroke-linejoin="round"/>
<path d="M6 2.5V0.5" stroke="#333333" stroke-linecap="round" stroke-linejoin="round"/>
<path d="M3 2.5V0.5" stroke="#333333" stroke-linecap="round" stroke-linejoin="round"/>
<path d="M9 2.5V0.5" stroke="#333333" stroke-linecap="round" stroke-linejoin="round"/>
<path d="M2.5 7H3.5" stroke="#333333" stroke-linecap="round" stroke-linejoin="round"/>
<path d="M5.5 7H6.5" stroke="#333333" stroke-linecap="round" stroke-linejoin="round"/>
<path d="M8.5 7H9.5" stroke="#333333" stroke-linecap="round" stroke-linejoin="round"/>
<path d="M2.5 9H3.5" stroke="#333333" stroke-linecap="round" stroke-linejoin="round"/>
<path d="M5.5 9H6.5" stroke="#333333" stroke-linecap="round" stroke-linejoin="round"/>
<path d="M8.5 9H9.5" stroke="#333333" stroke-linecap="round" stroke-linejoin="round"/>
</svg>
