<svg width="7" height="7" viewBox="0 0 7 7" fill="none" xmlns="http://www.w3.org/2000/svg">
<path d="M3.91036 3.50393L6.22758 1.19937C6.33867 1.0894 6.33867 0.911372 6.22758 0.801684C6.11677 0.691716 5.93677 0.691716 5.82595 0.801684L3.5107 3.10428L1.17408 0.767372C1.06327 0.656278 0.883268 0.656278 0.772455 0.767372C0.661643 0.878747 0.661643 1.05903 0.772455 1.17012L3.10739 3.50534L0.764018 5.83578C0.653205 5.94575 0.653205 6.12378 0.764018 6.23347C0.87483 6.34344 1.05483 6.34344 1.16564 6.23347L3.50705 3.905L5.83439 6.23262C5.9452 6.34372 6.1252 6.34372 6.23602 6.23262C6.34683 6.12125 6.34683 5.94097 6.23602 5.82987L3.91036 3.50393Z" fill="#6F6F6F"/>
</svg>
