<svg width="8" height="8" viewBox="0 0 8 8" fill="none" xmlns="http://www.w3.org/2000/svg">
<path d="M4.45596 4.00436L7.03064 1.44373C7.15408 1.32155 7.15408 1.12373 7.03064 1.00186C6.90752 0.87967 6.70752 0.87967 6.58439 1.00186L4.01189 3.5603L1.41564 0.963733C1.29252 0.840295 1.09252 0.840295 0.969395 0.963733C0.84627 1.08748 0.84627 1.2878 0.969395 1.41123L3.56377 4.00592L0.96002 6.5953C0.836895 6.71748 0.836895 6.9153 0.96002 7.03717C1.08314 7.15936 1.28314 7.15936 1.40627 7.03717L4.00783 4.44998L6.59377 7.03623C6.71689 7.15967 6.91689 7.15967 7.04002 7.03623C7.16314 6.91248 7.16314 6.71217 7.04002 6.58873L4.45596 4.00436Z" fill="#342F2F"/>
</svg>
