<svg width="9" height="8" viewBox="0 0 9 8" fill="none" xmlns="http://www.w3.org/2000/svg">
<g clip-path="url(#clip0)">
<path d="M7.91624 0.675431H6.19565V0.33835C6.19582 0.293871 6.18703 0.249798 6.16977 0.208672C6.15251 0.167546 6.12713 0.130181 6.09509 0.0987286C6.06306 0.0672767 6.025 0.0423606 5.98311 0.0254164C5.94122 0.00847212 5.89633 -0.000165141 5.85102 2.39121e-06H2.40985C2.36455 -0.000165141 2.31965 0.00847212 2.27776 0.0254164C2.23587 0.0423606 2.19781 0.0672767 2.16578 0.0987286C2.13374 0.130181 2.10836 0.167546 2.0911 0.208672C2.07384 0.249798 2.06505 0.293871 2.06522 0.33835V0.675431H0.344633C0.253231 0.675431 0.165572 0.711078 0.100941 0.774531C0.0363095 0.837983 0 0.924043 0 1.01378C0 1.10351 0.0363095 1.18957 0.100941 1.25303C0.165572 1.31648 0.253231 1.35213 0.344633 1.35213H1.03261V6.42101C1.03261 6.68988 1.1414 6.94774 1.33505 7.13786C1.5287 7.32798 1.79135 7.43478 2.06522 7.43478H6.19565C6.46952 7.43478 6.73217 7.32798 6.92582 7.13786C7.11947 6.94774 7.22826 6.68988 7.22826 6.42101V1.35213H7.91624C8.00764 1.35213 8.0953 1.31648 8.15993 1.25303C8.22456 1.18957 8.26087 1.10351 8.26087 1.01378C8.26087 0.924043 8.22456 0.837983 8.15993 0.774531C8.0953 0.711078 8.00764 0.675431 7.91624 0.675431ZM6.54029 6.42101C6.53994 6.51052 6.50348 6.59626 6.43889 6.65944C6.3743 6.72262 6.28683 6.75809 6.19565 6.75809H2.06522C1.97404 6.75809 1.88657 6.72262 1.82198 6.65944C1.75739 6.59626 1.72093 6.51052 1.72058 6.42101V1.35213H6.54029V6.42101Z" fill="#2F3134"/>
<path d="M3.09781 5.74436C3.18899 5.74436 3.27645 5.70889 3.34104 5.64571C3.40564 5.58253 3.4421 5.4968 3.44244 5.40728V2.70303C3.44244 2.6133 3.40613 2.52724 3.3415 2.46378C3.27687 2.40033 3.18921 2.36469 3.09781 2.36469C3.0064 2.36469 2.91875 2.40033 2.85411 2.46378C2.78948 2.52724 2.75317 2.6133 2.75317 2.70303V5.40728C2.75352 5.4968 2.78998 5.58253 2.85457 5.64571C2.91916 5.70889 3.00663 5.74436 3.09781 5.74436Z" fill="#2F3134"/>
<path d="M5.16299 5.74436C5.25417 5.74436 5.34164 5.70889 5.40623 5.64571C5.47082 5.58253 5.50728 5.4968 5.50763 5.40728V2.70303C5.50763 2.6133 5.47132 2.52724 5.40668 2.46378C5.34205 2.40033 5.25439 2.36469 5.16299 2.36469C5.07159 2.36469 4.98393 2.40033 4.9193 2.46378C4.85467 2.52724 4.81836 2.6133 4.81836 2.70303V5.40728C4.8187 5.4968 4.85516 5.58253 4.91975 5.64571C4.98435 5.70889 5.07181 5.74436 5.16299 5.74436Z" fill="#2F3134"/>
</g>
<defs>
<clipPath id="clip0">
<rect width="8.26087" height="7.43478" fill="white"/>
</clipPath>
</defs>
</svg>
