<svg width="134" height="30" viewBox="0 0 134 30" fill="none" xmlns="http://www.w3.org/2000/svg">
<g clip-path="url(#clip0)">
<path d="M36.736 9.2H43.576C45.352 9.2 46.92 9.56 48.28 10.28C49.64 10.984 50.696 11.976 51.448 13.256C52.2 14.52 52.576 15.968 52.576 17.6C52.576 19.232 52.2 20.688 51.448 21.968C50.696 23.232 49.64 24.224 48.28 24.944C46.92 25.648 45.352 26 43.576 26H36.736V9.2ZM43.48 24.464C44.952 24.464 46.24 24.176 47.344 23.6C48.448 23.008 49.304 22.2 49.912 21.176C50.52 20.136 50.824 18.944 50.824 17.6C50.824 16.256 50.52 15.072 49.912 14.048C49.304 13.008 48.448 12.2 47.344 11.624C46.24 11.032 44.952 10.736 43.48 10.736H38.512V24.464H43.48Z" fill="#F9B932"/>
<path d="M74.0121 9.2V26H72.3081V12.56L65.7081 23.864H64.8681L58.2681 12.632V26H56.5641V9.2H58.0281L65.3241 21.656L72.5481 9.2H74.0121Z" fill="#416E86"/>
<path d="M86.782 26.144C85.118 26.144 83.614 25.776 82.27 25.04C80.942 24.304 79.894 23.288 79.126 21.992C78.374 20.68 77.998 19.216 77.998 17.6C77.998 15.984 78.374 14.528 79.126 13.232C79.894 11.92 80.95 10.896 82.294 10.16C83.638 9.424 85.142 9.056 86.806 9.056C88.054 9.056 89.206 9.264 90.262 9.68C91.318 10.096 92.214 10.704 92.95 11.504L91.822 12.632C90.51 11.304 88.854 10.64 86.854 10.64C85.526 10.64 84.318 10.944 83.23 11.552C82.142 12.16 81.286 12.992 80.662 14.048C80.054 15.104 79.75 16.288 79.75 17.6C79.75 18.912 80.054 20.096 80.662 21.152C81.286 22.208 82.142 23.04 83.23 23.648C84.318 24.256 85.526 24.56 86.854 24.56C88.87 24.56 90.526 23.888 91.822 22.544L92.95 23.672C92.214 24.472 91.31 25.088 90.238 25.52C89.182 25.936 88.03 26.144 86.782 26.144ZM102.808 13.28C104.392 13.28 105.648 13.744 106.576 14.672C107.52 15.584 107.992 16.92 107.992 18.68V26H106.288V18.848C106.288 17.536 105.96 16.536 105.304 15.848C104.648 15.16 103.712 14.816 102.496 14.816C101.136 14.816 100.056 15.224 99.256 16.04C98.472 16.84 98.08 17.952 98.08 19.376V26H96.376V8.192H98.08V15.584C98.544 14.848 99.184 14.28 100 13.88C100.816 13.48 101.752 13.28 102.808 13.28ZM117.034 13.28C118.682 13.28 119.946 13.696 120.826 14.528C121.706 15.344 122.146 16.56 122.146 18.176V26H120.514V24.032C120.13 24.688 119.562 25.2 118.81 25.568C118.074 25.936 117.194 26.12 116.17 26.12C114.762 26.12 113.642 25.784 112.81 25.112C111.978 24.44 111.562 23.552 111.562 22.448C111.562 21.376 111.946 20.512 112.714 19.856C113.498 19.2 114.738 18.872 116.434 18.872H120.442V18.104C120.442 17.016 120.138 16.192 119.53 15.632C118.922 15.056 118.034 14.768 116.866 14.768C116.066 14.768 115.298 14.904 114.562 15.176C113.826 15.432 113.194 15.792 112.666 16.256L111.898 14.984C112.538 14.44 113.306 14.024 114.202 13.736C115.098 13.432 116.042 13.28 117.034 13.28ZM116.434 24.776C117.394 24.776 118.218 24.56 118.906 24.128C119.594 23.68 120.106 23.04 120.442 22.208V20.144H116.482C114.322 20.144 113.242 20.896 113.242 22.4C113.242 23.136 113.522 23.72 114.082 24.152C114.642 24.568 115.426 24.776 116.434 24.776ZM133.422 25.232C133.102 25.52 132.702 25.744 132.222 25.904C131.758 26.048 131.27 26.12 130.758 26.12C129.574 26.12 128.662 25.8 128.022 25.16C127.382 24.52 127.062 23.616 127.062 22.448V14.816H124.806V13.376H127.062V10.616H128.766V13.376H132.606V14.816H128.766V22.352C128.766 23.104 128.95 23.68 129.318 24.08C129.702 24.464 130.246 24.656 130.95 24.656C131.302 24.656 131.638 24.6 131.958 24.488C132.294 24.376 132.582 24.216 132.822 24.008L133.422 25.232Z" fill="#2E3031"/>
<path d="M6.21094 7.96875C5.22562 7.96875 4.45312 8.74125 4.45312 9.72656C4.45312 10.7119 5.22562 11.4844 6.21094 11.4844C7.19625 11.4844 7.96875 10.7119 7.96875 9.72656C7.96875 8.74125 7.19625 7.96875 6.21094 7.96875ZM11.4844 9.72656C11.4844 8.74125 10.7119 7.96875 9.72656 7.96875C8.74125 7.96875 7.96875 8.74125 7.96875 9.72656C7.96875 10.7119 8.74125 11.4844 9.72656 11.4844C10.7119 11.4844 11.4844 10.7119 11.4844 9.72656ZM13.2422 11.4844C14.2275 11.4844 15 10.7119 15 9.72656C15 8.74125 14.2275 7.96875 13.2422 7.96875C12.2569 7.96875 11.4844 8.74125 11.4844 9.72656C11.4844 10.7119 12.2569 11.4844 13.2422 11.4844ZM29.5142 28.3349L29.5125 28.334C28.4122 27.6577 28.0465 26.1734 28.7057 25.0713C29.564 23.5779 30 21.9635 30 20.2734C30 14.9425 25.6035 10.6055 20.2734 10.6055C19.4924 10.6055 18.7525 10.6913 18.0745 10.8595C17.7552 10.9393 17.5063 11.1926 17.4308 11.5136C16.7544 14.4301 14.4318 16.7527 11.5136 17.4316C11.1926 17.5062 10.9403 17.7543 10.8596 18.0745C10.6913 18.7508 10.6055 19.4907 10.6055 20.2734C10.6055 25.6044 14.9433 30 20.2734 30H29.1211C29.5279 30 29.8833 29.7193 29.976 29.3228C30.0704 28.9263 29.8781 28.5169 29.5142 28.3349Z" fill="url(#paint0_linear)"/>
<path d="M9.72656 0C4.40033 0 0 4.40033 0 9.72656C0 11.414 0.439453 13.0663 1.28314 14.4902C1.93354 15.6328 1.56445 17.0918 0.439453 17.7598C0.0878906 17.9531 -0.0702539 18.3574 0.0352148 18.7441C0.140684 19.1308 0.474668 19.3945 0.878906 19.3945H9.72656C10.5 19.3945 11.2559 19.3066 11.9062 19.1484C15.4747 18.3223 18.3223 15.4746 19.1484 11.9238C19.3067 11.2559 19.3945 10.5176 19.3945 9.72656C19.3945 4.40033 15.0528 0 9.72656 0ZM6.21094 10.6055C5.71869 10.6055 5.33203 10.2187 5.33203 9.72656C5.33203 9.23432 5.71869 8.84766 6.21094 8.84766C6.70318 8.84766 7.08984 9.23432 7.08984 9.72656C7.08984 10.2187 6.70318 10.6055 6.21094 10.6055ZM9.72656 10.6055C9.23432 10.6055 8.84766 10.2187 8.84766 9.72656C8.84766 9.23432 9.23432 8.84766 9.72656 8.84766C10.2188 8.84766 10.6055 9.23432 10.6055 9.72656C10.6055 10.2187 10.2188 10.6055 9.72656 10.6055ZM13.2422 10.6055C12.7499 10.6055 12.3633 10.2187 12.3633 9.72656C12.3633 9.23432 12.7499 8.84766 13.2422 8.84766C13.7344 8.84766 14.1211 9.23432 14.1211 9.72656C14.1211 10.2187 13.7344 10.6055 13.2422 10.6055ZM16.7578 19.3945C16.2724 19.3945 15.8789 19.788 15.8789 20.2734C15.8789 20.7588 16.2724 21.1523 16.7578 21.1523C17.2432 21.1523 17.6367 20.7588 17.6367 20.2734C17.6367 19.788 17.2432 19.3945 16.7578 19.3945ZM20.2734 19.3945C19.788 19.3945 19.3945 19.788 19.3945 20.2734C19.3945 20.7588 19.788 21.1523 20.2734 21.1523C20.7588 21.1523 21.1523 20.7588 21.1523 20.2734C21.1523 19.788 20.7588 19.3945 20.2734 19.3945ZM23.7891 19.3945C23.3037 19.3945 22.9102 19.788 22.9102 20.2734C22.9102 20.7588 23.3037 21.1523 23.7891 21.1523C24.2745 21.1523 24.668 20.7588 24.668 20.2734C24.668 19.788 24.2745 19.3945 23.7891 19.3945Z" fill="url(#paint1_linear)"/>
</g>
<defs>
<linearGradient id="paint0_linear" x1="17.2266" y1="30" x2="17.2266" y2="7.96875" gradientUnits="userSpaceOnUse">
<stop stop-color="#F9B932"/>
<stop offset="1" stop-color="#F9F132"/>
</linearGradient>
<linearGradient id="paint1_linear" x1="12.334" y1="21.1523" x2="12.334" y2="0" gradientUnits="userSpaceOnUse">
<stop stop-color="#F98632"/>
<stop offset="1" stop-color="#FFB09E"/>
</linearGradient>
<clipPath id="clip0">
<rect width="134" height="30" fill="white"/>
</clipPath>
</defs>
</svg>
