<svg width="239" height="16" viewBox="0 0 239 16" fill="none" xmlns="http://www.w3.org/2000/svg">
<path d="M20.9405 3.13403H234.155C235.053 3.13207 235.943 3.31861 236.774 3.68297C237.582 4.03713 238.317 4.55251 238.942 5.20099C238.32 5.84728 237.586 6.36141 236.782 6.71546C235.953 7.08056 235.064 7.26831 234.166 7.26799C233.269 7.26799 19.1545 7.07998 18.3254 6.71474C14.7814 11.9678 1.60671 16.4723 0.106697 15.9602C-1.39331 15.4481 13.4069 5.67492 14.1069 5.15589e-05L16.5002 0C18.0002 0.610112 17.0002 0.0979029 18.0002 0.610105C19.0002 1.12231 19.1281 3.13403 20.9405 3.13403Z" fill="#EFEFEF"/>
</svg>
