<svg width="239" height="16" viewBox="0 0 239 16" fill="none" xmlns="http://www.w3.org/2000/svg">
<path d="M218.057 3.0597H4.84525C3.94666 3.05779 3.05658 3.2399 2.22588 3.59563C1.41847 3.94138 0.682632 4.44454 0.0579681 5.07765C0.680511 5.70861 1.41351 6.21054 2.21779 6.5562C3.04715 6.91264 3.936 7.09594 4.8336 7.09562C5.731 7.09562 219.843 6.91208 220.672 6.55549C224.216 11.6839 237.391 16.0817 238.891 15.5817C240.391 15.0817 225.591 5.54033 224.891 5.03361e-05L222.498 0C220.998 0.595642 221.998 0.0955811 220.998 0.595636C219.998 1.09569 219.87 3.0597 218.057 3.0597Z" fill="#96C2DA"/>
</svg>
