<svg width="351" height="378" viewBox="0 0 351 378" fill="none" xmlns="http://www.w3.org/2000/svg">
<g clip-path="url(#clip0)">
<path d="M301.359 1.67591L174.858 7.07406C156.495 7.85764 142.243 23.3527 143.026 41.6832L155.669 337.972C156.451 356.303 171.971 370.528 190.334 369.744L316.835 364.346C335.197 363.562 349.449 348.067 348.667 329.737L336.023 33.4475C335.241 15.117 319.721 0.892328 301.359 1.67591Z" fill="#2F3134"/>
<path d="M326.228 28.446L339.23 333.13C339.445 338.092 337.685 342.937 334.333 346.607C330.981 350.277 326.311 352.474 321.342 352.718L184.835 358.543C174.537 358.983 165.793 350.89 165.352 340.55L152.35 35.8659C151.909 25.5306 159.953 16.7169 170.23 16.2784L306.724 10.4538C317.013 10.0147 325.787 18.1107 326.228 28.446Z" fill="white"/>
<path d="M306.736 10.4532L186.551 358.47L184.835 358.543C174.537 358.983 165.793 350.89 165.352 340.55L152.35 35.8659C151.909 25.5306 159.953 16.7169 170.23 16.2784L306.736 10.4532Z" fill="white"/>
<path d="M266.824 23.506L211.118 25.8831C208.703 25.9805 206.347 25.119 204.566 23.487C202.786 21.855 201.725 19.5854 201.617 17.1746C201.52 14.7639 202.384 12.4133 204.019 10.6364C205.654 8.85961 207.928 7.80115 210.342 7.69247L266.047 5.31536C268.462 5.21911 270.816 6.08046 272.596 7.71131C274.377 9.34216 275.438 11.61 275.549 14.0197C275.645 16.4307 274.781 18.7818 273.146 20.5593C271.511 22.3368 269.238 23.3962 266.824 23.506Z" fill="#2F3134"/>
<path d="M266.329 89.0848L79.7676 97.0459C70.9572 97.4218 64.1192 104.856 64.4945 113.652L67.4856 183.746C67.8609 192.541 75.3074 199.366 84.1178 198.99L270.679 191.029C279.49 190.653 286.328 183.218 285.952 174.423L282.961 104.329C282.586 95.5338 275.139 88.7088 266.329 89.0848Z" fill="#629DBD"/>
<path d="M266.269 41.333L196.589 44.3064C189.219 44.6209 183.5 50.8397 183.814 58.1965L184.16 66.3089C184.474 73.6657 190.702 79.3747 198.072 79.0602L267.752 76.0867C275.122 75.7722 280.842 69.5534 280.528 62.1966L280.181 54.0843C279.867 46.7274 273.639 41.0185 266.269 41.333Z" fill="#FA8B40"/>
<path d="M272.844 288.196L192.794 291.612C183.967 291.989 177.116 299.437 177.492 308.249L177.96 319.214C178.336 328.025 185.796 334.863 194.623 334.487L274.674 331.071C283.501 330.694 290.352 323.245 289.976 314.434L289.508 303.469C289.132 294.657 281.671 287.819 272.844 288.196Z" fill="#FA8B40"/>
<path d="M229.033 210.605L302.751 207.459C307.829 207.243 312.786 209.049 316.53 212.48C320.274 215.912 322.499 220.688 322.716 225.758L323.711 249.076C323.927 254.145 322.117 259.092 318.68 262.83C315.243 266.568 310.459 268.791 305.381 269.008L231.66 272.154C226.582 272.371 221.627 270.565 217.883 267.134C214.14 263.703 211.915 258.928 211.699 253.86L210.704 230.538C210.596 228.028 210.985 225.521 211.848 223.161C212.711 220.8 214.031 218.633 215.733 216.782C217.435 214.931 219.486 213.433 221.768 212.373C224.05 211.313 226.519 210.712 229.033 210.605Z" fill="#F9B932"/>
<path d="M58.3654 52.7151L2.98152 63.0297L38.8845 36.2881L41.1123 44.2729L54.7667 46.1447L58.3654 52.7151Z" fill="#2F3134"/>
<path d="M2.98132 63.0296L48.3319 37.185L93.6853 32.9626L48.3333 47.9961L2.98132 63.0296Z" fill="#5A93B2"/>
<path d="M38.8845 36.2881L2.98153 63.0297L29.9307 22.4841L38.8845 36.2881Z" fill="#5A93B2"/>
<path d="M149.773 141.272C150.039 147.523 148.443 153.712 145.186 159.057C141.93 164.402 137.158 168.664 131.476 171.302C125.793 173.941 119.454 174.838 113.261 173.881C107.068 172.923 101.299 170.153 96.6838 165.922C92.0681 161.691 88.8132 156.189 87.3306 150.111C85.848 144.032 86.2044 137.651 88.3546 131.775C90.5049 125.898 94.3524 120.79 99.4107 117.096C104.469 113.402 110.511 111.288 116.772 111.022C120.934 110.823 125.094 111.45 129.011 112.866C132.929 114.283 136.526 116.461 139.595 119.274C142.664 122.087 145.143 125.479 146.89 129.255C148.637 133.031 149.617 137.116 149.773 141.272Z" fill="#EFECEA"/>
<path d="M131.489 157.028L131.233 156.773C130.856 156.51 130.484 156.35 129.01 156.164C128.258 156.067 127.218 155.966 125.747 155.84C125.747 155.84 125.428 155.815 125.26 155.809L124.894 155.795C124.455 155.59 124.282 153.856 124.204 152.022C124.198 151.885 124.193 151.748 124.186 151.594C124.156 150.9 124.157 150.214 124.157 149.596C124.155 149.557 124.154 149.523 124.152 149.48C125.06 149.518 125.661 149.489 125.661 149.489C127.341 149.28 128.2 144.724 128.422 141.059C128.882 139.707 129.104 138.284 129.076 136.856C129.078 135.603 128.644 134.388 127.846 133.42C127.499 133.015 127.083 132.674 126.617 132.413C126.51 132.31 126.394 132.22 126.287 132.135C124.643 130.463 117.989 124.216 113.962 128.164C113.838 127.792 112.298 123.618 105.754 125.287C106.181 125.226 109.078 124.828 109.973 125.965C109.86 125.919 107.254 124.897 105.675 125.956C104.951 126.437 104.528 127.395 104.309 128.396C104.307 128.404 104.308 128.413 104.31 128.421L104.237 128.828C104.236 128.849 104.237 128.871 104.24 128.892C104.095 129.72 104.105 130.568 104.269 131.392C104.558 132.414 106.508 135.408 107.718 135.356C108.194 135.316 108.657 135.181 109.081 134.959C108.904 135.553 108.764 136.158 108.664 136.77C107.633 142.847 111.84 147.251 113.869 146.027C115.172 145.25 116.28 147.529 116.28 147.529C116.27 151.94 115.183 154.87 114.317 155.624C113.997 155.676 113.305 155.791 112.44 155.966C110.603 156.263 108.812 156.792 107.108 157.541L107.054 157.564C106.589 157.769 106.155 158.036 105.763 158.357C105.603 158.483 105.464 158.634 105.353 158.804C105.301 158.868 105.258 158.937 105.224 159.011C104.344 161.079 103.66 163.224 103.18 165.419C108.199 168.829 114.227 170.441 120.282 169.993C126.337 169.544 132.061 167.062 136.521 162.949C134.648 159.536 132.591 157.779 131.489 157.028Z" fill="#F9B932"/>
<path d="M206.202 122.915L171.327 124.403C170.583 124.434 169.857 124.169 169.308 123.666C168.759 123.164 168.432 122.464 168.398 121.722C168.368 120.978 168.635 120.253 169.139 119.705C169.643 119.157 170.344 118.83 171.088 118.796L205.963 117.308C206.707 117.279 207.434 117.544 207.982 118.048C208.531 118.551 208.859 119.25 208.893 119.994C208.922 120.737 208.655 121.461 208.151 122.009C207.647 122.556 206.946 122.882 206.202 122.915Z" fill="#EFECEA"/>
<path d="M208.041 143.034L171.21 144.606C170.724 144.625 170.251 144.452 169.893 144.124C169.535 143.796 169.321 143.339 169.3 142.855C169.281 142.371 169.455 141.899 169.784 141.543C170.113 141.186 170.569 140.974 171.054 140.952L207.885 139.38C208.369 139.361 208.842 139.533 209.2 139.861C209.558 140.188 209.772 140.643 209.795 141.127C209.814 141.612 209.641 142.084 209.312 142.442C208.983 142.799 208.526 143.012 208.041 143.034Z" fill="#EFECEA"/>
<path d="M191.675 152.383L171.578 153.24C171.093 153.26 170.62 153.087 170.263 152.76C169.905 152.433 169.691 151.978 169.668 151.494C169.649 151.009 169.822 150.536 170.151 150.179C170.48 149.822 170.937 149.609 171.422 149.587L191.52 148.729C192.005 148.71 192.479 148.883 192.837 149.211C193.195 149.539 193.408 149.995 193.43 150.48C193.448 150.964 193.274 151.436 192.945 151.792C192.617 152.149 192.16 152.361 191.675 152.383Z" fill="#EFECEA"/>
<path d="M234.741 150.545L201.021 151.984C200.536 152.002 200.065 151.829 199.708 151.502C199.351 151.175 199.138 150.721 199.115 150.237C199.095 149.753 199.268 149.281 199.596 148.924C199.924 148.567 200.38 148.353 200.865 148.331L234.585 146.892C235.07 146.873 235.542 147.047 235.899 147.375C236.256 147.703 236.469 148.159 236.491 148.642C236.509 149.126 236.336 149.597 236.008 149.953C235.68 150.309 235.225 150.522 234.741 150.545Z" fill="#EFECEA"/>
<path d="M266.08 140.557L217.785 142.618C217.3 142.636 216.827 142.463 216.47 142.135C216.113 141.807 215.9 141.351 215.879 140.867C215.86 140.384 216.034 139.913 216.361 139.556C216.689 139.2 217.145 138.987 217.629 138.964L265.924 136.904C266.408 136.885 266.88 137.058 267.237 137.385C267.594 137.713 267.807 138.167 267.83 138.65C267.849 139.134 267.676 139.606 267.348 139.964C267.021 140.321 266.565 140.534 266.08 140.557Z" fill="#EFECEA"/>
<path d="M208.778 160.316L171.947 161.888C171.462 161.908 170.989 161.735 170.631 161.408C170.274 161.081 170.06 160.626 170.037 160.142C170.017 159.657 170.191 159.184 170.52 158.827C170.849 158.469 171.306 158.256 171.791 158.235L208.622 156.663C209.108 156.643 209.581 156.817 209.939 157.145C210.297 157.473 210.51 157.929 210.532 158.414C210.55 158.898 210.376 159.369 210.048 159.726C209.719 160.082 209.263 160.295 208.778 160.316Z" fill="#EFECEA"/>
<path d="M266.817 157.84L218.522 159.901C218.038 159.919 217.566 159.746 217.209 159.419C216.852 159.092 216.639 158.637 216.616 158.154C216.597 157.67 216.77 157.198 217.098 156.841C217.425 156.483 217.881 156.27 218.366 156.247L266.662 154.186C267.146 154.168 267.619 154.342 267.976 154.67C268.333 154.998 268.546 155.453 268.567 155.937C268.586 156.42 268.412 156.892 268.085 157.248C267.757 157.604 267.301 157.817 266.817 157.84Z" fill="#EFECEA"/>
<path d="M240.957 115.815L216.329 116.866C214.926 116.926 213.837 118.109 213.897 119.51L213.92 120.045C213.98 121.445 215.165 122.532 216.568 122.472L241.196 121.421C242.599 121.362 243.688 120.178 243.628 118.777L243.605 118.242C243.546 116.842 242.36 115.755 240.957 115.815Z" fill="#EFECEA"/>
<path d="M216.53 302.802L191.73 303.861C191.202 303.881 190.687 303.692 190.297 303.335C189.907 302.978 189.675 302.482 189.65 301.954C189.63 301.426 189.82 300.911 190.179 300.522C190.537 300.133 191.035 299.901 191.565 299.877L216.36 298.819C216.889 298.798 217.405 298.986 217.795 299.344C218.185 299.701 218.417 300.198 218.44 300.726C218.462 301.254 218.273 301.769 217.915 302.158C217.557 302.547 217.059 302.779 216.53 302.802Z" fill="#2F3134"/>
<path d="M217.656 312.976L191.484 314.092C191.142 314.107 190.809 313.986 190.557 313.755C190.306 313.524 190.156 313.203 190.142 312.862C190.127 312.522 190.249 312.189 190.48 311.938C190.711 311.686 191.032 311.537 191.374 311.523L217.547 310.406C217.887 310.397 218.217 310.52 218.467 310.75C218.718 310.979 218.869 311.297 218.889 311.636C218.903 311.976 218.782 312.309 218.551 312.56C218.319 312.812 217.998 312.961 217.656 312.976Z" fill="#2F3134"/>
<path d="M206.025 319.629L191.733 320.239C191.392 320.254 191.058 320.133 190.807 319.902C190.555 319.671 190.406 319.35 190.391 319.009C190.376 318.669 190.498 318.336 190.729 318.085C190.96 317.833 191.282 317.684 191.623 317.669L205.915 317.06C206.257 317.045 206.59 317.166 206.842 317.397C207.093 317.628 207.243 317.949 207.258 318.29C207.272 318.63 207.15 318.963 206.919 319.214C206.688 319.466 206.367 319.615 206.025 319.629Z" fill="#2F3134"/>
<path d="M236.643 318.323L212.667 319.346C212.325 319.361 211.992 319.239 211.741 319.009C211.489 318.778 211.339 318.457 211.325 318.116C211.31 317.775 211.432 317.443 211.663 317.191C211.894 316.94 212.216 316.791 212.557 316.776L236.533 315.753C236.875 315.738 237.208 315.86 237.46 316.09C237.711 316.321 237.861 316.642 237.875 316.983C237.89 317.324 237.768 317.656 237.537 317.908C237.306 318.159 236.984 318.308 236.643 318.323Z" fill="#2F3134"/>
<path d="M258.924 311.215L224.599 312.679C224.257 312.694 223.924 312.573 223.673 312.342C223.421 312.111 223.271 311.79 223.257 311.449C223.242 311.109 223.364 310.776 223.595 310.525C223.826 310.273 224.148 310.124 224.489 310.109L258.814 308.645C259.156 308.63 259.489 308.752 259.741 308.982C259.992 309.213 260.142 309.534 260.156 309.875C260.171 310.215 260.049 310.548 259.818 310.799C259.587 311.051 259.265 311.2 258.924 311.215Z" fill="#2F3134"/>
<path d="M218.181 325.273L192.008 326.389C191.667 326.404 191.334 326.283 191.082 326.052C190.83 325.821 190.681 325.5 190.666 325.159C190.652 324.819 190.773 324.486 191.004 324.235C191.236 323.983 191.557 323.834 191.899 323.819L218.071 322.703C218.411 322.694 218.741 322.817 218.992 323.046C219.242 323.276 219.393 323.594 219.413 323.933C219.428 324.273 219.306 324.606 219.075 324.857C218.844 325.109 218.522 325.258 218.181 325.273Z" fill="#2F3134"/>
<path d="M259.449 323.512L225.123 324.976C224.782 324.991 224.449 324.869 224.197 324.639C223.945 324.408 223.796 324.087 223.781 323.746C223.767 323.405 223.889 323.073 224.12 322.822C224.351 322.57 224.672 322.421 225.014 322.406L259.339 320.942C259.68 320.927 260.013 321.048 260.265 321.279C260.517 321.51 260.666 321.831 260.681 322.172C260.695 322.512 260.574 322.845 260.343 323.096C260.112 323.348 259.79 323.497 259.449 323.512Z" fill="#2F3134"/>
<path d="M241.237 297.753L223.727 298.5C222.73 298.543 221.955 299.385 221.998 300.381L222.014 300.758C222.056 301.754 222.9 302.526 223.897 302.484L241.407 301.737C242.405 301.694 243.179 300.852 243.137 299.856L243.121 299.479C243.078 298.484 242.235 297.711 241.237 297.753Z" fill="#2F3134"/>
<path d="M222.896 53.8941L198.101 54.9522C197.572 54.9737 197.056 54.7851 196.666 54.4278C196.276 54.0705 196.044 53.5735 196.021 53.0457C195.999 52.5178 196.188 52.0029 196.546 51.6136C196.904 51.2244 197.402 50.9926 197.931 50.9689L222.726 49.9108C223.256 49.8893 223.772 50.0777 224.162 50.4349C224.553 50.7921 224.786 51.289 224.811 51.8171C224.831 52.3455 224.641 52.8605 224.282 53.2496C223.924 53.6387 223.425 53.8704 222.896 53.8941Z" fill="#2F3134"/>
<path d="M224.027 64.067L197.854 65.1839C197.512 65.1984 197.179 65.077 196.927 64.8464C196.676 64.6157 196.526 64.2946 196.512 63.9538C196.497 63.613 196.619 63.2804 196.85 63.0291C197.081 62.7779 197.403 62.6285 197.744 62.614L223.917 61.4971C224.258 61.4825 224.592 61.6039 224.843 61.8346C225.095 62.0653 225.244 62.3863 225.259 62.7271C225.273 63.0679 225.152 63.4005 224.921 63.6518C224.69 63.9031 224.368 64.0524 224.027 64.067Z" fill="#2F3134"/>
<path d="M212.391 70.7253L198.103 71.335C197.762 71.3496 197.429 71.2282 197.177 70.9975C196.925 70.7669 196.776 70.4458 196.761 70.105C196.747 69.7642 196.868 69.4316 197.099 69.1803C197.331 68.9291 197.652 68.7797 197.993 68.7651L212.281 68.1554C212.623 68.1409 212.956 68.2623 213.208 68.493C213.459 68.7236 213.609 69.0447 213.623 69.3855C213.632 69.7248 213.509 70.0543 213.279 70.3043C213.049 70.5544 212.73 70.7053 212.391 70.7253Z" fill="#2F3134"/>
<path d="M242.992 69.4195L219.02 70.4425C218.679 70.457 218.346 70.3356 218.094 70.105C217.842 69.8743 217.693 69.5532 217.678 69.2124C217.664 68.8717 217.785 68.539 218.016 68.2878C218.248 68.0365 218.569 67.8871 218.91 67.8726L242.882 66.8496C243.224 66.835 243.557 66.9565 243.809 67.1871C244.06 67.4178 244.21 67.7389 244.224 68.0796C244.239 68.4204 244.117 68.7531 243.886 69.0043C243.655 69.2556 243.333 69.405 242.992 69.4195Z" fill="#2F3134"/>
<path d="M265.29 62.3062L230.964 63.771C230.623 63.7855 230.29 63.6641 230.038 63.4335C229.787 63.2028 229.637 62.8817 229.622 62.5409C229.608 62.2001 229.73 61.8675 229.961 61.6162C230.192 61.365 230.513 61.2156 230.855 61.2011L265.18 59.7363C265.521 59.7217 265.855 59.8431 266.106 60.0738C266.358 60.3045 266.507 60.6255 266.522 60.9663C266.537 61.3071 266.415 61.6397 266.184 61.891C265.953 62.1423 265.631 62.2916 265.29 62.3062Z" fill="#2F3134"/>
<path d="M247.608 48.8447L230.097 49.5919C229.1 49.6345 228.325 50.4763 228.368 51.4722L228.384 51.8492C228.427 52.845 229.27 53.6179 230.267 53.5753L247.778 52.8281C248.775 52.7855 249.549 51.9437 249.507 50.9478L249.491 50.5709C249.448 49.575 248.605 48.8021 247.608 48.8447Z" fill="#2F3134"/>
<path d="M252.633 220.9L225.482 222.059C224.275 222.11 223.339 223.128 223.391 224.332L223.391 224.337C223.442 225.541 224.462 226.475 225.668 226.424L252.819 225.265C254.025 225.213 254.961 224.196 254.91 222.992L254.91 222.987C254.858 221.783 253.839 220.849 252.633 220.9Z" fill="#2F3134"/>
<path d="M254.051 236.403L225.381 237.627C225.003 237.642 224.635 237.507 224.357 237.252C224.079 236.997 223.913 236.642 223.896 236.265C223.879 235.888 224.014 235.519 224.27 235.241C224.525 234.962 224.881 234.796 225.259 234.778L253.929 233.555C254.307 233.541 254.675 233.677 254.954 233.932C255.232 234.188 255.397 234.543 255.415 234.92C255.428 235.297 255.293 235.664 255.038 235.941C254.782 236.219 254.428 236.385 254.051 236.403Z" fill="#2F3134"/>
<path d="M241.311 243.688L225.668 244.356C225.481 244.364 225.294 244.335 225.118 244.271C224.942 244.207 224.781 244.108 224.643 243.982C224.505 243.856 224.393 243.703 224.314 243.534C224.235 243.364 224.19 243.181 224.183 242.994C224.175 242.808 224.203 242.621 224.268 242.446C224.332 242.27 224.43 242.109 224.557 241.971C224.683 241.833 224.836 241.722 225.006 241.643C225.176 241.564 225.359 241.52 225.546 241.512L241.19 240.844C241.568 240.828 241.937 240.962 242.215 241.217C242.494 241.473 242.659 241.828 242.675 242.205C242.691 242.582 242.557 242.95 242.301 243.229C242.045 243.507 241.689 243.672 241.311 243.688Z" fill="#2F3134"/>
<path d="M274.83 242.258L248.589 243.377C248.402 243.385 248.215 243.357 248.039 243.293C247.863 243.228 247.701 243.13 247.564 243.004C247.426 242.878 247.314 242.725 247.235 242.556C247.156 242.386 247.111 242.203 247.103 242.016C247.095 241.83 247.124 241.643 247.189 241.467C247.253 241.292 247.351 241.131 247.478 240.993C247.604 240.855 247.757 240.744 247.927 240.665C248.097 240.586 248.28 240.541 248.467 240.533L274.709 239.414C275.087 239.398 275.455 239.532 275.734 239.787C276.012 240.042 276.178 240.398 276.194 240.775C276.21 241.152 276.075 241.52 275.82 241.798C275.564 242.076 275.208 242.242 274.83 242.258Z" fill="#2F3134"/>
<path d="M299.223 234.476L261.637 236.08C261.259 236.095 260.89 235.96 260.611 235.705C260.332 235.45 260.166 235.096 260.147 234.719C260.132 234.341 260.268 233.972 260.524 233.693C260.78 233.415 261.137 233.249 261.515 233.231L299.101 231.627C299.479 231.612 299.848 231.748 300.127 232.004C300.405 232.26 300.571 232.615 300.587 232.993C300.602 233.37 300.467 233.737 300.211 234.015C299.955 234.293 299.6 234.458 299.223 234.476Z" fill="#2F3134"/>
<path d="M254.625 249.865L225.955 251.089C225.578 251.104 225.209 250.969 224.931 250.714C224.653 250.459 224.487 250.104 224.47 249.728C224.462 249.541 224.491 249.354 224.555 249.179C224.619 249.003 224.718 248.842 224.844 248.704C224.971 248.566 225.123 248.455 225.293 248.376C225.463 248.297 225.647 248.253 225.834 248.245L254.504 247.021C254.881 247.006 255.249 247.141 255.528 247.396C255.806 247.651 255.972 248.006 255.989 248.383C256.003 248.759 255.867 249.126 255.612 249.403C255.357 249.681 255.002 249.847 254.625 249.865Z" fill="#2F3134"/>
<path d="M299.797 247.938L262.211 249.542C261.833 249.557 261.465 249.422 261.186 249.167C260.907 248.912 260.74 248.558 260.722 248.181C260.707 247.803 260.842 247.435 261.099 247.157C261.355 246.879 261.712 246.714 262.09 246.698L299.676 245.094C299.863 245.086 300.05 245.115 300.225 245.179C300.401 245.243 300.563 245.341 300.701 245.467C300.839 245.594 300.95 245.746 301.029 245.915C301.108 246.085 301.153 246.268 301.161 246.455C301.176 246.832 301.041 247.199 300.785 247.477C300.53 247.755 300.174 247.92 299.797 247.938Z" fill="#2F3134"/>
<path d="M254.925 256.89L226.255 258.113C225.877 258.128 225.509 257.993 225.231 257.738C224.953 257.483 224.787 257.129 224.77 256.752C224.762 256.565 224.791 256.379 224.855 256.203C224.919 256.028 225.017 255.866 225.144 255.729C225.271 255.591 225.423 255.479 225.593 255.401C225.763 255.322 225.946 255.277 226.134 255.269L254.804 254.046C255.181 254.031 255.549 254.166 255.827 254.421C256.106 254.676 256.272 255.03 256.289 255.407C256.303 255.784 256.167 256.15 255.912 256.428C255.657 256.705 255.302 256.871 254.925 256.89Z" fill="#2F3134"/>
<path d="M300.097 254.962L262.511 256.566C262.133 256.581 261.764 256.446 261.485 256.192C261.207 255.937 261.04 255.582 261.021 255.205C261.006 254.827 261.142 254.459 261.398 254.181C261.655 253.903 262.011 253.738 262.39 253.722L299.976 252.118C300.163 252.11 300.349 252.139 300.525 252.203C300.701 252.267 300.863 252.365 301.001 252.492C301.139 252.618 301.25 252.77 301.329 252.94C301.408 253.109 301.453 253.293 301.461 253.479C301.476 253.856 301.341 254.224 301.085 254.501C300.83 254.779 300.474 254.945 300.097 254.962Z" fill="#2F3134"/>
<path d="M279.865 219.738L260.695 220.556C259.602 220.603 258.755 221.525 258.801 222.615L258.819 223.031C258.865 224.121 259.789 224.968 260.881 224.921L280.052 224.103C281.144 224.056 281.992 223.134 281.945 222.044L281.928 221.628C281.881 220.538 280.958 219.692 279.865 219.738Z" fill="#2F3134"/>
<path d="M178.693 35.0121L176.809 36.4871L174.794 35.1913C175.002 34.8716 175.283 34.6061 175.615 34.4171C175.947 34.2281 176.319 34.1209 176.701 34.1047C177.082 34.0884 177.462 34.1634 177.809 34.3235C178.156 34.4836 178.459 34.724 178.694 35.0249L178.693 35.0121Z" fill="#EFECEA"/>
<path d="M176.562 30.7004C175.636 30.7418 174.733 31.005 173.93 31.468C173.126 31.9309 172.447 32.58 171.947 33.3604L173.22 34.1643C173.591 33.5933 174.094 33.1188 174.685 32.7801C175.277 32.4414 175.941 32.2483 176.622 32.2167C177.304 32.1851 177.983 32.3159 178.603 32.5984C179.224 32.8809 179.768 33.3069 180.191 33.8411L181.385 32.9062C180.815 32.1814 180.08 31.6031 179.241 31.2194C178.403 30.8357 177.484 30.6578 176.562 30.7004Z" fill="#EFECEA"/>
<path d="M176.287 24.2414C174.325 24.3287 172.413 24.8854 170.712 25.8646C169.01 26.8437 167.57 28.2167 166.511 29.8678L167.783 30.6717C168.709 29.2285 169.969 28.028 171.455 27.1709C172.942 26.3137 174.613 25.8249 176.327 25.7454C178.042 25.6659 179.751 25.9981 181.311 26.7141C182.87 27.43 184.235 28.5089 185.291 29.8602L186.476 28.9257C185.276 27.3897 183.724 26.1629 181.951 25.348C180.179 24.533 178.236 24.1536 176.287 24.2414Z" fill="#EFECEA"/>
<path d="M176.437 27.7793C175.039 27.839 173.675 28.2323 172.461 28.9262C171.246 29.6201 170.215 30.5944 169.455 31.7675L170.723 32.5716C171.352 31.6082 172.201 30.8077 173.201 30.2363C174.2 29.6649 175.322 29.3389 176.472 29.2852C177.623 29.2315 178.77 29.4516 179.818 29.9274C180.867 30.4032 181.787 31.121 182.503 32.0217L183.689 31.1129C182.832 30.0226 181.728 29.1516 180.467 28.572C179.205 27.9923 177.824 27.7206 176.437 27.7793Z" fill="#EFECEA"/>
<path d="M299.75 308.185C299.856 310.657 300.693 313.042 302.157 315.039C303.62 317.035 305.644 318.554 307.972 319.402C310.3 320.251 312.828 320.391 315.236 319.805C317.644 319.219 319.824 317.933 321.501 316.111C323.177 314.288 324.274 312.01 324.654 309.565C325.034 307.12 324.678 304.618 323.633 302.374C322.588 300.131 320.9 298.247 318.783 296.962C316.665 295.676 314.213 295.047 311.737 295.152C310.09 295.212 308.471 295.598 306.974 296.288C305.477 296.977 304.131 297.957 303.016 299.169C301.901 300.381 301.039 301.803 300.478 303.35C299.917 304.898 299.67 306.541 299.75 308.185Z" fill="#EFECEA"/>
<path d="M318.969 314.445C318.95 314.412 318.927 314.381 318.901 314.354C318.843 314.276 318.772 314.21 318.69 314.157C318.495 314.021 318.282 313.914 318.058 313.836L318.032 313.837C317.211 313.555 316.357 313.379 315.491 313.315C315.081 313.272 314.757 313.248 314.628 313.236C314.184 312.916 313.574 311.599 313.392 309.551C313.392 309.551 313.813 308.448 314.45 308.759C315.442 309.245 317.217 307.032 316.501 304.248C316.429 303.969 316.341 303.695 316.238 303.427C316.444 303.512 316.665 303.557 316.888 303.558C317.446 303.534 318.234 302.063 318.33 301.578C318.425 301.093 318.242 299.514 317.441 299.08C316.64 298.646 315.5 299.231 315.449 299.251C315.813 298.699 317.147 298.749 317.367 298.766C314.277 298.262 313.73 300.251 313.681 300.429C311.659 298.756 308.815 301.924 308.116 302.765C308.07 302.81 308.021 302.855 307.976 302.908C307.768 303.046 307.588 303.221 307.443 303.424C307.112 303.906 306.959 304.487 307.011 305.069C307.055 305.732 307.213 306.383 307.479 306.993C307.729 308.699 308.311 310.772 309.099 310.786C309.099 310.786 309.377 310.774 309.797 310.726C309.797 310.726 309.798 310.76 309.799 310.782C309.811 311.064 309.846 311.384 309.864 311.706L309.872 311.898C309.909 312.755 309.896 313.567 309.703 313.678L309.536 313.685L309.31 313.716C308.631 313.835 308.149 313.924 307.809 313.999C307.127 314.14 306.959 314.228 306.801 314.368C306.76 314.408 306.721 314.451 306.686 314.497C305.762 315.318 305.046 316.346 304.596 317.496C306.832 319.228 309.591 320.153 312.421 320.121C315.252 320.088 317.988 319.099 320.183 317.316C319.867 316.324 319.461 315.363 318.969 314.445Z" fill="#FA8B40"/>
<path d="M289.033 57.0278C289.146 59.7857 290.175 62.4274 291.958 64.5366C292.529 65.2138 293.169 65.8293 293.868 66.3732C296.104 68.1056 298.862 69.0309 301.692 68.9981C304.523 68.9654 307.259 67.9766 309.455 66.193C310.969 64.9636 312.175 63.3982 312.976 61.6215C313.777 59.8448 314.151 57.906 314.069 55.9595C314.029 54.2977 313.657 52.6605 312.976 51.1438C312.295 49.627 311.318 48.261 310.102 47.1255C308.886 45.9901 307.455 45.108 305.894 44.5308C304.332 43.9537 302.671 43.693 301.008 43.764C299.344 43.8349 297.711 44.2362 296.204 44.9443C294.698 45.6524 293.348 46.6532 292.233 47.8881C291.118 49.123 290.261 50.5673 289.711 52.1365C289.162 53.7058 288.931 55.3686 289.033 57.0278Z" fill="#EFECEA"/>
<path d="M308.252 63.3006C308.232 63.2667 308.209 63.2346 308.184 63.2049C308.125 63.1284 308.053 63.062 307.973 63.0079C307.776 62.8774 307.564 62.7712 307.341 62.6916L307.315 62.6927C306.493 62.4124 305.64 62.2369 304.774 62.1703C304.363 62.1192 304.04 62.0944 303.911 62.087C303.774 61.9709 303.66 61.8302 303.575 61.6723C303.036 60.6577 302.728 59.5367 302.674 58.3895C302.674 58.3895 303.095 57.2859 303.732 57.5977C304.724 58.0832 306.5 55.8705 305.783 53.0905C305.713 52.8031 305.624 52.5202 305.519 52.2435C305.726 52.329 305.947 52.3735 306.17 52.3745C306.728 52.3507 307.516 50.8796 307.611 50.395C307.707 49.9103 307.523 48.3305 306.722 47.8927C305.921 47.4548 304.781 48.0441 304.731 48.072C305.094 47.5159 306.429 47.5705 306.648 47.5611C303.557 47.0579 303.01 49.0466 302.962 49.2245C300.939 47.5516 298.096 50.7195 297.396 51.5561C297.351 51.6009 297.301 51.6502 297.256 51.7036C297.049 51.8419 296.868 52.0168 296.724 52.2198C296.393 52.6997 296.24 53.2799 296.291 53.8603C296.334 54.5253 296.493 55.1777 296.76 55.7884C297.009 57.4941 297.592 59.5633 298.379 59.5812C298.379 59.5812 298.658 59.5692 299.077 59.5213C299.077 59.5213 299.079 59.5556 299.079 59.5727C299.092 59.8597 299.127 60.18 299.145 60.5011L299.153 60.6981C299.19 61.5547 299.177 62.362 298.984 62.4732L298.817 62.4803L298.59 62.5157C297.912 62.6305 297.43 62.7197 297.089 62.7944C296.726 62.8255 296.378 62.9546 296.082 63.1677L295.967 63.2971C295.044 64.1186 294.328 65.1459 293.877 66.2956C294.002 66.3932 294.126 66.4866 294.254 66.5755L294.316 66.6201C294.414 66.6889 294.507 66.7535 294.604 66.8138C294.701 66.874 294.742 66.9109 294.812 66.9551L295.024 67.0834C295.126 67.152 295.232 67.2118 295.337 67.2717L295.553 67.3912C295.641 67.4389 295.733 67.4908 295.826 67.534L296.124 67.6843L296.15 67.6832L296.194 67.7028L296.435 67.8127L296.509 67.8438L296.645 67.9067L296.781 67.961C296.882 68.0061 296.986 68.0461 297.091 68.0808L297.405 68.1918L297.545 68.2459L297.689 68.2912L297.985 68.3773C298.085 68.4117 298.185 68.4374 298.29 68.463L298.55 68.5334L298.576 68.5323L298.741 68.5725C299.041 68.6412 299.353 68.7008 299.66 68.7478C299.798 68.7676 299.933 68.7877 300.066 68.7991C300.102 68.8014 300.138 68.7999 300.174 68.7946L300.208 68.7931L300.475 68.8117L300.531 68.8093L300.57 68.8077L300.811 68.8231L300.854 68.8213L300.931 68.818L301.361 68.8297L301.61 68.819L302.039 68.8007C304.734 68.6901 307.32 67.7094 309.408 66.0061C309.101 65.0728 308.715 64.1676 308.252 63.3006Z" fill="#FA8B40"/>
</g>
<defs>
<clipPath id="clip0">
<rect width="334" height="363" fill="white" transform="translate(0.9104 14.4969) rotate(-2.44349)"/>
</clipPath>
</defs>
</svg>
