<svg width="390" height="391" viewBox="0 0 390 391" fill="none" xmlns="http://www.w3.org/2000/svg">
<path d="M324.788 28.0392L321.64 51.72L338.478 39.437L390 13.1219L350.138 16.7664C350.138 16.7664 329.83 21.696 328.733 22.6884C327.636 23.6807 324.788 28.0392 324.788 28.0392Z" fill="#426E86"/>
<path d="M307.121 13.743L390 13.1361L324.774 28.0428L307.121 13.743Z" fill="#5A93B3"/>
<path d="M351.417 51.8628L329.698 34.4395L390 13.1361L351.417 51.8628Z" fill="#5A93B3"/>
<path d="M316.23 40.3758C318.012 39.6831 319.868 39.1957 321.761 38.923L321.604 37.4523C319.586 37.7359 317.607 38.2522 315.708 38.9908L316.23 40.3758Z" fill="#333333"/>
<path d="M264 172.255C267.306 170.594 270.51 168.737 273.595 166.693L274.417 167.925C271.282 169.999 268.027 171.886 264.668 173.576L264 172.255ZM282.328 159.908C285.051 157.428 287.542 154.705 289.768 151.772L290.947 152.661C288.67 155.666 286.123 158.456 283.336 160.996L282.328 159.908ZM295.486 142.363C296.2 140.839 296.879 139.254 297.472 137.647C298.141 135.831 298.734 133.928 299.231 132L300.66 132.357C300.149 134.335 299.541 136.284 298.873 138.147C298.266 139.796 297.58 141.424 296.836 142.988L295.486 142.363ZM301.464 110.029L302.943 109.997C303.046 113.752 302.927 117.509 302.586 121.249L301.114 121.109C301.45 117.426 301.571 113.727 301.475 110.029H301.464ZM299.359 87.8693L300.824 87.6587C301.443 91.9851 301.896 95.5119 302.214 98.7852L300.742 98.9315C300.424 95.6903 299.985 92.1743 299.37 87.8693H299.359ZM297.701 76.7358C297.128 73.0253 296.94 69.2656 297.14 65.5165L298.62 65.6057C298.423 69.2523 298.607 72.9093 299.166 76.518V76.6037L297.701 76.8036V76.7358ZM299.563 54.4079C301.005 50.8396 303.199 47.6232 305.995 44.977L307.014 46.0479C304.371 48.5529 302.3 51.5964 300.939 54.9719L299.563 54.4079Z" fill="#333333"/>
<path d="M248.781 180.233C250.685 179.572 252.565 178.88 254.362 178.173L253.819 176.795C252.032 177.509 250.181 178.184 248.295 178.837L248.781 180.233Z" fill="#333333"/>
<path d="M219.821 0H50.6216C44.5712 0 38.7687 2.40091 34.4904 6.67455C30.2121 10.9482 27.8087 16.7445 27.8087 22.7884V368.208C27.8096 374.252 30.2133 380.048 34.4912 384.322C38.7692 388.596 44.5712 390.998 50.6216 391H219.821C222.817 391 225.784 390.41 228.552 389.265C231.32 388.12 233.835 386.441 235.954 384.324C238.072 382.208 239.752 379.695 240.899 376.93C242.045 374.165 242.635 371.201 242.634 368.208V22.7884C242.633 16.7448 240.229 10.949 235.951 6.6756C231.673 2.40216 225.871 0.00094645 219.821 0Z" fill="#333333"/>
<path d="M231.578 31.0627H38.8685V359.941H231.578V31.0627Z" fill="white"/>
<g style="mix-blend-mode:multiply" opacity="0.3">
<path d="M184.737 222.882H17.3777C16.0029 222.882 14.6415 223.152 13.3712 223.677C12.1009 224.203 10.9467 224.973 9.97435 225.944C9.00206 226.914 8.23079 228.067 7.70456 229.336C7.17834 230.605 6.90747 231.965 6.90747 233.338V302.331C6.90747 303.704 7.17834 305.064 7.70456 306.333C8.23079 307.602 9.00206 308.754 9.97435 309.725C10.9467 310.696 12.1009 311.466 13.3712 311.992C14.6415 312.517 16.0029 312.787 17.3777 312.786H149.138C154.473 320.218 164.147 333.529 164.994 333.529C165.841 333.529 164.254 320.957 163.171 312.786H184.737C186.112 312.787 187.473 312.517 188.744 311.992C190.014 311.466 191.168 310.696 192.14 309.725C193.113 308.754 193.884 307.602 194.41 306.333C194.936 305.064 195.207 303.704 195.207 302.331V233.338C195.207 231.965 194.936 230.605 194.41 229.336C193.884 228.067 193.113 226.914 192.14 225.944C191.168 224.973 190.014 224.203 188.744 223.677C187.473 223.152 186.112 222.882 184.737 222.882Z" fill="#858585"/>
</g>
<g style="mix-blend-mode:multiply" opacity="0.3">
<path d="M244.646 66.5731H66.4806C65.1058 66.5726 63.7444 66.8427 62.4741 67.3679C61.2038 67.8931 60.0495 68.6632 59.0772 69.6341C58.105 70.605 57.3337 71.7578 56.8075 73.0265C56.2812 74.2953 56.0104 75.6551 56.0104 77.0285V151.18C56.0104 152.553 56.2812 153.913 56.8075 155.182C57.3337 156.45 58.105 157.603 59.0772 158.574C60.0495 159.545 61.2038 160.315 62.4741 160.84C63.7444 161.366 65.1058 161.636 66.4806 161.635H84.9804C83.9084 169.799 82.5004 181.507 83.2723 181.507C84.0442 181.507 93.0707 169.188 98.4988 161.635H244.653C247.427 161.631 250.085 160.528 252.045 158.568C254.005 156.607 255.106 153.95 255.106 151.18V77.0177C255.103 74.2479 254 71.5924 252.039 69.6341C250.078 67.6759 247.419 66.575 244.646 66.5731Z" fill="#858585"/>
</g>
<path d="M174.953 16.6058H95.808C94.8922 16.6058 94.1499 17.3473 94.1499 18.2621V19.0688C94.1499 19.9835 94.8922 20.7251 95.808 20.7251H174.953C175.869 20.7251 176.611 19.9835 176.611 19.0688V18.2621C176.611 17.3473 175.869 16.6058 174.953 16.6058Z" fill="white"/>
<path d="M177.83 204.988H10.4667C7.69072 204.988 5.02848 206.09 3.0656 208.05C1.10272 210.011 -1.52588e-05 212.67 -1.52588e-05 215.443V284.433C-1.52588e-05 287.206 1.10272 289.865 3.0656 291.826C5.02848 293.787 7.69072 294.888 10.4667 294.888H142.231C147.562 302.324 157.239 315.635 158.086 315.635C158.883 315.635 157.346 303.063 156.26 294.888H177.83C180.605 294.888 183.268 293.787 185.231 291.826C187.193 289.865 188.296 287.206 188.296 284.433V215.443C188.296 212.67 187.193 210.011 185.231 208.05C183.268 206.09 180.605 204.988 177.83 204.988Z" fill="#F9B932"/>
<path opacity="0.3" d="M144.575 375.793C144.575 377.664 144.02 379.492 142.979 381.047C141.939 382.602 140.46 383.814 138.731 384.53C137.001 385.245 135.097 385.433 133.261 385.067C131.424 384.702 129.738 383.801 128.414 382.478C127.09 381.156 126.189 379.471 125.824 377.636C125.459 375.802 125.647 373.9 126.364 372.172C127.081 370.445 128.295 368.968 129.852 367.929C131.41 366.891 133.24 366.337 135.112 366.338C137.622 366.339 140.029 367.335 141.804 369.108C143.578 370.882 144.575 373.286 144.575 375.793Z" fill="#858585"/>
<path d="M137.932 379.72H132.289C131.992 379.72 131.708 379.602 131.497 379.393C131.287 379.184 131.168 378.899 131.167 378.603V372.963C131.168 372.666 131.287 372.382 131.497 372.173C131.708 371.963 131.992 371.845 132.289 371.845H137.932C138.229 371.845 138.514 371.963 138.724 372.173C138.934 372.382 139.053 372.666 139.054 372.963V378.603C139.053 378.899 138.934 379.184 138.724 379.393C138.514 379.602 138.229 379.72 137.932 379.72ZM132.289 372.149C132.073 372.149 131.865 372.235 131.712 372.387C131.559 372.54 131.472 372.747 131.471 372.963V378.603C131.472 378.819 131.559 379.026 131.712 379.178C131.865 379.331 132.073 379.417 132.289 379.417H137.932C138.148 379.417 138.356 379.331 138.509 379.178C138.663 379.026 138.749 378.819 138.75 378.603V372.963C138.749 372.747 138.663 372.54 138.509 372.387C138.356 372.235 138.148 372.149 137.932 372.149H132.289Z" fill="#858585"/>
<path d="M62.1603 249.94C62.1603 255.125 60.621 260.194 57.7372 264.505C54.8534 268.816 50.7545 272.176 45.9589 274.16C41.1634 276.144 35.8865 276.663 30.7957 275.651C25.7049 274.639 21.0287 272.142 17.3586 268.476C13.6886 264.809 11.1894 260.138 10.1772 255.052C9.165 249.967 9.68521 244.696 11.6721 239.905C13.6589 235.115 17.0231 231.021 21.3393 228.141C25.6555 225.261 30.7298 223.724 35.9204 223.725C42.88 223.726 49.5542 226.488 54.475 231.404C59.3959 236.321 62.1603 242.988 62.1603 249.94Z" fill="white"/>
<path d="M22.2591 250.625C22.2591 250.625 19.6576 239.959 25.8575 235.965C32.0575 231.971 38.6755 231.057 43.196 233.359C49.4674 236.55 52.0438 245.171 50.0391 249.94L33.394 245.764L22.2591 250.625Z" fill="#333333"/>
<path d="M40.0728 263.148H32.3684V270.833H40.0728V263.148Z" fill="#F7C29E"/>
<path d="M40.0728 267.752V263.148H32.3648V267.074C34.0265 267.956 36.4814 268.466 40.0728 267.752Z" fill="#F19A5E"/>
<path d="M52.2189 249.39C51.8109 249.204 51.3647 249.117 50.9165 249.135C50.4683 249.153 50.0307 249.276 49.6389 249.494C49.5808 245.897 48.1097 242.468 45.543 239.945C42.9762 237.422 39.5196 236.008 35.9186 236.008C32.3176 236.008 28.8609 237.422 26.2942 239.945C23.7275 242.468 22.2564 245.897 22.1983 249.494C21.8065 249.276 21.3689 249.153 20.9207 249.135C20.4725 249.117 20.0263 249.204 19.6183 249.39C18.0745 250.151 17.5957 252.325 18.5462 254.249C19.4968 256.173 21.5194 257.104 23.0631 256.355C23.2733 256.251 23.4671 256.118 23.6384 255.958C24.5246 262.227 29.7669 266.928 35.9204 266.839C42.0703 266.928 47.3161 262.227 48.1988 255.958C48.3714 256.118 48.5664 256.251 48.7777 256.355C50.3178 257.115 52.3511 256.169 53.291 254.249C54.2308 252.328 53.7626 250.143 52.2189 249.39Z" fill="#F7C29E"/>
<path d="M40.9625 258.354C40.6052 259.871 38.8792 261.066 36.7458 261.131C34.6125 261.195 32.8151 260.11 32.3648 258.632L40.9625 258.354Z" fill="white"/>
<path d="M22.1983 249.494C22.1983 249.494 32.2826 246.442 36.6959 241.348C36.6959 241.348 35.4487 247.484 34.516 248.466C34.809 248.662 44.586 243.911 45.9153 239.542C47.2447 235.173 35.9097 233.584 35.9097 233.584C35.9097 233.584 32.0289 235.233 31.8323 235.333C31.6358 235.433 27.9945 235.854 27.5764 236.782C27.0332 237.989 24.4639 238.096 24.4639 238.096L22.8415 241.469L21.7087 245.014L22.1983 249.494Z" fill="#333333"/>
<path d="M13.9401 235.619C16.1663 236.515 18.7392 236.929 21.405 236.108C27.2905 234.302 29.6239 235.005 30.403 235.447C30.6319 235.587 30.8877 235.677 31.1536 235.711C31.4195 235.746 31.6897 235.724 31.9467 235.647C32.5292 235.455 33.0688 234.933 32.9008 233.606C32.9008 233.606 33.1331 228.019 28.3411 224.839C22.4206 226.628 17.3212 230.445 13.9401 235.619Z" fill="#333333"/>
<path d="M26.6008 235.251C26.5592 235.197 26.5292 235.135 26.5127 235.069C26.4962 235.003 26.4936 234.935 26.505 234.868C26.5165 234.801 26.5416 234.737 26.579 234.68C26.6164 234.623 26.6652 234.574 26.7223 234.537C27.705 233.891 30.2314 232.438 33.2689 232.281C33.3365 232.278 33.4041 232.288 33.4675 232.312C33.5309 232.335 33.5888 232.372 33.6377 232.419C33.6866 232.465 33.7253 232.522 33.7516 232.584C33.7779 232.646 33.7912 232.713 33.7906 232.781C33.7908 232.908 33.7419 233.031 33.6541 233.123C33.5663 233.216 33.4463 233.271 33.3189 233.277C30.5423 233.423 28.1624 234.791 27.2691 235.372C27.1626 235.439 27.035 235.464 26.9114 235.441C26.7877 235.419 26.677 235.351 26.6008 235.251Z" fill="#7FBF43"/>
<path d="M253.162 46.8617H75.0033C72.2274 46.8617 69.5651 47.9633 67.6022 49.924C65.6394 51.8848 64.5366 54.5442 64.5366 57.3171V131.468C64.5366 132.841 64.8074 134.201 65.3334 135.47C65.8594 136.738 66.6303 137.891 67.6022 138.862C68.5742 139.832 69.728 140.603 70.9979 141.128C72.2678 141.653 73.6288 141.924 75.0033 141.924H93.5031C92.4311 150.088 91.0267 161.796 91.795 161.796C92.5633 161.796 101.597 149.481 107.025 141.924H253.179C254.554 141.924 255.916 141.654 257.186 141.129C258.456 140.604 259.611 139.834 260.583 138.863C261.555 137.892 262.326 136.739 262.853 135.47C263.379 134.202 263.65 132.842 263.65 131.468V57.3171C263.65 55.9423 263.378 54.581 262.851 53.3111C262.324 52.0412 261.551 50.8876 260.577 49.9165C259.602 48.9453 258.446 48.1756 257.174 47.6514C255.901 47.1273 254.538 46.8589 253.162 46.8617Z" fill="#FA8B40"/>
<path d="M122.301 106.746C128.986 93.9024 123.982 78.0768 111.124 71.3992C98.2661 64.7215 82.4235 69.7204 75.7386 82.5645C69.0537 95.4086 74.058 111.234 86.916 117.912C99.774 124.589 115.617 119.591 122.301 106.746Z" fill="white"/>
<path d="M103.176 107.866H95.4721V115.552H103.176V107.866Z" fill="#F7C29E"/>
<path d="M103.176 112.471V107.863H95.4721V111.789C97.1302 112.675 99.5851 113.185 103.176 112.471Z" fill="#F19A5E"/>
<path d="M115.326 94.109C114.918 93.9223 114.471 93.8343 114.022 93.8523C113.573 93.8703 113.135 93.9937 112.743 94.2125C112.743 90.5781 111.297 87.0925 108.725 84.5225C106.152 81.9526 102.662 80.5088 99.0241 80.5088C95.3857 80.5088 91.8964 81.9526 89.3236 84.5225C86.7509 87.0925 85.3056 90.5781 85.3056 94.2125C84.9133 93.9937 84.475 93.8703 84.0261 93.8523C83.5773 93.8343 83.1305 93.9223 82.722 94.109C81.1782 94.8693 80.6994 97.0432 81.6499 98.9672C82.6005 100.891 84.623 101.823 86.1668 101.073C86.3768 100.968 86.5715 100.835 86.7457 100.677C87.6283 106.945 92.8706 111.646 99.0241 111.557C105.174 111.646 110.42 106.945 111.302 100.677C111.476 100.836 111.671 100.969 111.881 101.073C113.422 101.834 115.455 100.888 116.395 98.9672C117.334 97.0468 116.866 94.8657 115.326 94.109Z" fill="#F7C29E"/>
<path d="M89.6545 77.5175C89.6545 77.5175 93.521 74.2477 102.312 74.776C111.102 75.3043 112.775 79.8841 113.271 86.4272L112.757 94.2125C112.757 94.2125 110.477 91.8673 107.504 85.3706C107.504 85.3706 102.583 90.8857 100.439 90.2324C98.2951 89.5792 101.25 85.5919 101.25 85.5919C101.25 85.5919 91.2232 94.2089 85.3199 94.1982C85.3199 94.1982 82.1931 84.1105 86.5813 80.4124C86.5813 80.4124 83.2759 80.5695 83.1008 79.9198C82.9257 79.2702 84.6766 78.2992 87.8534 78.6669C87.8534 78.6669 85.5879 74.2442 86.8529 73.7837C88.1179 73.3232 89.6545 77.5175 89.6545 77.5175Z" fill="#050505"/>
<path d="M104.066 103.076C103.727 104.593 101.983 105.789 99.8496 105.853C97.7162 105.917 95.9188 104.832 95.4721 103.354L104.066 103.076Z" fill="white"/>
<path d="M136.463 68.2329H236.563C237.137 68.2329 237.688 68.4608 238.094 68.8665C238.5 69.2722 238.728 69.8224 238.728 70.3961V70.621C238.728 71.1947 238.5 71.7449 238.094 72.1506C237.688 72.5563 237.137 72.7842 236.563 72.7842H136.463C136.179 72.7842 135.897 72.7282 135.634 72.6195C135.372 72.5108 135.133 72.3515 134.932 72.1506C134.731 71.9497 134.571 71.7113 134.463 71.4488C134.354 71.1864 134.298 70.9051 134.298 70.621V70.3961C134.298 69.8215 134.526 69.2703 134.933 68.864C135.34 68.4577 135.891 68.2294 136.467 68.2294L136.463 68.2329Z" fill="white"/>
<path d="M156.793 80.2518H136.46C135.264 80.2518 134.294 81.2203 134.294 82.415V82.6434C134.294 83.8381 135.264 84.8066 136.46 84.8066H156.793C157.989 84.8066 158.958 83.8381 158.958 82.6434V82.415C158.958 81.2203 157.989 80.2518 156.793 80.2518Z" fill="white"/>
<path d="M236.57 80.2518H170.436C169.24 80.2518 168.271 81.2203 168.271 82.415V82.6434C168.271 83.8381 169.24 84.8066 170.436 84.8066H236.57C237.766 84.8066 238.736 83.8381 238.736 82.6434V82.415C238.736 81.2203 237.766 80.2518 236.57 80.2518Z" fill="white"/>
<path d="M186.081 92.2707H136.46C135.264 92.2707 134.294 93.2391 134.294 94.4338V94.6623C134.294 95.857 135.264 96.8255 136.46 96.8255H186.081C187.277 96.8255 188.246 95.857 188.246 94.6623V94.4338C188.246 93.2391 187.277 92.2707 186.081 92.2707Z" fill="white"/>
<path d="M236.57 92.2707H198.305C197.109 92.2707 196.14 93.2391 196.14 94.4338V94.6623C196.14 95.857 197.109 96.8255 198.305 96.8255H236.57C237.766 96.8255 238.736 95.857 238.736 94.6623V94.4338C238.736 93.2391 237.766 92.2707 236.57 92.2707Z" fill="white"/>
<path d="M236.566 104.29H136.46C135.264 104.29 134.294 105.258 134.294 106.453V106.681C134.294 107.876 135.264 108.844 136.46 108.844H236.566C237.762 108.844 238.732 107.876 238.732 106.681V106.453C238.732 105.258 237.762 104.29 236.566 104.29Z" fill="white"/>
<path d="M100.264 227.359H69.443C68.247 227.359 67.2775 228.327 67.2775 229.522V229.75C67.2775 230.945 68.247 231.914 69.443 231.914H100.264C101.46 231.914 102.43 230.945 102.43 229.75V229.522C102.43 228.327 101.46 227.359 100.264 227.359Z" fill="white"/>
<path d="M88.8576 239.378H69.443C68.247 239.378 67.2775 240.346 67.2775 241.541V241.769C67.2775 242.964 68.247 243.932 69.443 243.932H88.8576C90.0536 243.932 91.0231 242.964 91.0231 241.769V241.541C91.0231 240.346 90.0536 239.378 88.8576 239.378Z" fill="white"/>
<path d="M122.173 239.378H97.2838C96.0878 239.378 95.1183 240.346 95.1183 241.541V241.769C95.1183 242.964 96.0878 243.932 97.2838 243.932H122.173C123.369 243.932 124.338 242.964 124.338 241.769V241.541C124.338 240.346 123.369 239.378 122.173 239.378Z" fill="white"/>
<path d="M165.658 239.378H130.599C129.403 239.378 128.434 240.346 128.434 241.541V241.769C128.434 242.964 129.403 243.932 130.599 243.932H165.658C166.854 243.932 167.824 242.964 167.824 241.769V241.541C167.824 240.346 166.854 239.378 165.658 239.378Z" fill="white"/>
<path d="M165.662 227.359H110.423C109.227 227.359 108.258 228.327 108.258 229.522V229.75C108.258 230.945 109.227 231.914 110.423 231.914H165.662C166.858 231.914 167.827 230.945 167.827 229.75V229.522C167.827 228.327 166.858 227.359 165.662 227.359Z" fill="white"/>
<path d="M165.658 262.937H69.443C68.247 262.937 67.2775 263.905 67.2775 265.1V265.329C67.2775 266.523 68.247 267.492 69.443 267.492H165.658C166.854 267.492 167.824 266.523 167.824 265.329V265.1C167.824 263.905 166.854 262.937 165.658 262.937Z" fill="white"/>
<path d="M117.056 251.396H69.443C68.247 251.396 67.2775 252.365 67.2775 253.56V253.788C67.2775 254.983 68.247 255.951 69.443 255.951H117.056C118.252 255.951 119.221 254.983 119.221 253.788V253.56C119.221 252.365 118.252 251.396 117.056 251.396Z" fill="white"/>
<path d="M165.658 251.396H128.984C127.788 251.396 126.818 252.365 126.818 253.56V253.788C126.818 254.983 127.788 255.951 128.984 255.951H165.658C166.854 255.951 167.824 254.983 167.824 253.788V253.56C167.824 252.365 166.854 251.396 165.658 251.396Z" fill="white"/>
</svg>
